<?xml version="1.0" encoding="utf-8"?>
<!-- Generator: Adobe Illustrator 22.0.1, SVG Export Plug-In . SVG Version: 6.00 Build 0)  -->
<svg version="1.1" id="Camada_1" xmlns="http://www.w3.org/2000/svg" xmlns:xlink="http://www.w3.org/1999/xlink" x="0px" y="0px"
	 viewBox="0 0 200 42.3" style="enable-background:new 0 0 200 42.3;" xml:space="preserve">
<style type="text/css">
	.st0{fill:#FFFFFF;}
	.st1{fill-rule:evenodd;clip-rule:evenodd;fill:#FFFFFF;}
</style>
<g>
	<g>
		<path class="st0" d="M86.6,16.1L86.6,16.1c-1.4-1.1-3.1-1.7-5-1.7c-2.3,0-4.3,0.8-5.9,2.4c-1.6,1.6-2.4,3.6-2.4,5.9
			c0,2.3,0.8,4.2,2.4,5.9c1.6,1.6,3.6,2.4,5.9,2.4c1.9,0,3.6-0.6,5-1.7l0,0c0,0,0,0,0,0c0.3-0.3,0.7-0.5,1.2-0.5s0.8,0.2,1.2,0.5
			s0.5,0.7,0.5,1.2c0,0.5-0.2,0.8-0.5,1.2c0,0,0,0,0,0l0,0c-2.1,1.7-4.5,2.6-7.4,2.6c-3.2,0-5.9-1.1-8.2-3.4s-3.4-5-3.4-8.2
			s1.1-5.9,3.4-8.2c2.3-2.3,5-3.4,8.2-3.4c2.8,0,5.3,0.9,7.4,2.6l0,0c0,0,0,0,0,0c0.3,0.3,0.5,0.7,0.5,1.2s-0.2,0.8-0.5,1.2
			c-0.3,0.3-0.7,0.5-1.2,0.5S87,16.4,86.6,16.1C86.6,16.1,86.6,16.1,86.6,16.1z"/>
		<path class="st0" d="M98.1,18.1c0.5,0,0.8,0.2,1.2,0.5s0.5,0.7,0.5,1.2c0,0.5-0.2,0.8-0.5,1.2s-0.7,0.5-1.2,0.5h0
			c-1.3,0-2.5,0.5-3.4,1.4c-0.9,0.9-1.3,1.9-1.4,3.1c0,0.1,0,0.2,0,0.3v6.2c0,0.6-0.2,1.1-0.5,1.4s-0.7,0.5-1.2,0.5
			c-0.5,0-0.8-0.2-1.2-0.5S90,33,90,32.4v-6.2c0-2.2,0.8-4.1,2.4-5.6C93.8,19,95.7,18.2,98.1,18.1z"/>
		<path class="st0" d="M111.5,20.5c1.6,1.6,2.4,3.5,2.4,5.7s-0.8,4.1-2.4,5.7c-1.6,1.6-3.5,2.4-5.7,2.4c-2.2,0-4.1-0.8-5.7-2.4
			c-1.6-1.6-2.4-3.5-2.4-5.7s0.8-4.1,2.4-5.7c1.6-1.6,3.5-2.4,5.7-2.4C108,18.1,109.9,18.9,111.5,20.5z M105.7,21.4
			c-1.3,0-2.5,0.5-3.4,1.4c-0.9,0.9-1.4,2.1-1.4,3.4c0,1.3,0.5,2.5,1.4,3.4c0.9,0.9,2.1,1.4,3.4,1.4c1.3,0,2.5-0.5,3.4-1.4
			c0.9-0.9,1.4-2.1,1.4-3.4c0-1.3-0.5-2.5-1.4-3.4C108.2,21.9,107.1,21.4,105.7,21.4z"/>
		<path class="st0" d="M122.7,18.1c2.3,0.1,4.1,0.9,5.6,2.4c1.6,1.6,2.3,3.4,2.4,5.6v6.2c0,0.6-0.2,1.1-0.5,1.4s-0.7,0.5-1.2,0.5
			s-0.8-0.2-1.2-0.5c-0.3-0.3-0.5-0.8-0.5-1.4v-6.2c0-0.1,0-0.2,0-0.3c-0.1-1.2-0.5-2.2-1.4-3.1c-0.9-0.9-2.1-1.4-3.4-1.4h-0.1
			c-1.3,0-2.5,0.5-3.4,1.4c-0.9,0.9-1.3,1.9-1.4,3.1c0,0.1,0,0.2,0,0.3v6.2c0,0.6-0.2,1.1-0.5,1.4s-0.7,0.5-1.2,0.5
			c-0.5,0-0.8-0.2-1.2-0.5s-0.5-0.8-0.5-1.4v-6.2c0-2.2,0.8-4.1,2.4-5.6c1.5-1.5,3.3-2.3,5.6-2.4H122.7z"/>
		<path class="st0" d="M137,27.8l-2.7,5.5c-0.1,0.2-0.2,0.3-0.3,0.5c-0.3,0.3-0.7,0.5-1.1,0.5c-0.5,0-0.8-0.2-1.1-0.5
			c-0.3-0.3-0.5-0.7-0.5-1.1c0-0.3,0.1-0.6,0.2-0.8l9.6-19.7c0.1-0.2,0.2-0.3,0.3-0.5c0.3-0.3,0.7-0.5,1.1-0.5
			c0.4,0,0.8,0.2,1.1,0.5c0.1,0.1,0.2,0.3,0.3,0.4l9.6,19.7c0.2,0.3,0.3,0.6,0.3,0.9c0,0.4-0.2,0.8-0.5,1.1
			c-0.3,0.3-0.7,0.5-1.1,0.5c-0.5,0-0.8-0.2-1.1-0.5c-0.1-0.2-0.2-0.3-0.3-0.5h0l-2.7-5.5H137z M146.5,24.6l-4-8.2l-4,8.2H146.5z"/>
		<path class="st0" d="M154.5,26.1c0-2.2,0.8-4.1,2.4-5.6c1.6-1.6,3.5-2.4,5.7-2.4c2.2,0,4.1,0.8,5.7,2.4c1.6,1.6,2.4,3.5,2.4,5.7
			s-0.8,4.1-2.4,5.7c-1.6,1.6-3.5,2.4-5.7,2.4c-1.8,0-3.4-0.5-4.8-1.6v6.4c0,0.5-0.2,0.8-0.5,1.2s-0.7,0.5-1.2,0.5s-0.8-0.2-1.2-0.5
			s-0.5-0.7-0.5-1.2V26.1z M157.8,25.9c0,0.1,0,0.2,0,0.3v0.6c0.1,1.1,0.6,2,1.4,2.8c0.9,0.9,2.1,1.4,3.4,1.4s2.5-0.5,3.4-1.4
			c0.9-0.9,1.4-2.1,1.4-3.4c0-1.3-0.5-2.5-1.4-3.4c-0.9-0.9-2.1-1.4-3.4-1.4s-2.5,0.5-3.4,1.4C158.3,23.7,157.8,24.7,157.8,25.9z"/>
		<path class="st0" d="M171.3,26.1c0-2.2,0.8-4.1,2.4-5.6c1.6-1.6,3.5-2.4,5.7-2.4c2.2,0,4.1,0.8,5.7,2.4c1.6,1.6,2.4,3.5,2.4,5.7
			s-0.8,4.1-2.4,5.7c-1.6,1.6-3.5,2.4-5.7,2.4c-1.8,0-3.4-0.5-4.8-1.6v6.4c0,0.5-0.2,0.8-0.5,1.2s-0.7,0.5-1.2,0.5s-0.8-0.2-1.2-0.5
			s-0.5-0.7-0.5-1.2V26.1z M174.6,25.9c0,0.1,0,0.2,0,0.3v0.6c0.1,1.1,0.6,2,1.4,2.8c0.9,0.9,2.1,1.4,3.4,1.4s2.5-0.5,3.4-1.4
			c0.9-0.9,1.4-2.1,1.4-3.4c0-1.3-0.5-2.5-1.4-3.4c-0.9-0.9-2.1-1.4-3.4-1.4s-2.5,0.5-3.4,1.4C175.1,23.7,174.6,24.7,174.6,25.9z"/>
	</g>
	<g>
		<path class="st1" d="M54.4,15c-1.6-6.8-7.7-11.8-15-11.8c-7.7,0-14.1,5.7-15.2,13.1c-0.1,0-0.1,0-0.2,0c-4.4,0-8.1,3.6-8.1,8.1
			c0,4.4,3.6,8.1,8.1,8.1c2.1,0,4-0.8,5.4-2.1c2.7,2.3,6.2,3.7,10,3.7c3.1,0,5.9-0.9,8.3-2.4c1.7,1.4,3.8,2.3,6.1,2.3
			c5.2,0,9.4-4.2,9.4-9.4C63.3,19.3,59.3,15.2,54.4,15z M39.5,30.8c-6.5,0-11.8-5.3-11.8-11.8c0-6.5,5.3-11.8,11.8-11.8
			c5,0,9.2,3.1,11,7.4c-0.6-0.2-1.2-0.4-1.9-0.4c-0.9,0-1.7,0.2-2.4,0.6c-1.4-2.2-3.8-3.6-6.5-3.6c-4.3,0-7.7,3.4-7.7,7.7
			c0,4.3,3.4,7.7,7.7,7.7c2.5,0,4.8-1.2,6.2-3.1c0.8,0.5,1.7,0.8,2.8,0.8c0.5,0,1.1-0.1,1.5-0.2C48.1,28.1,44.1,30.8,39.5,30.8z
			 M48.4,23.5c-2.3,0-4.1-1.8-4.1-4.1s1.8-4.1,4.1-4.1c2.3,0,4.1,1.8,4.1,4.1S50.6,23.5,48.4,23.5z"/>
		<path class="st1" d="M29.4,30.3c-1.4,1.3-3.3,2.1-5.4,2.1c-4.4,0-8.1-3.6-8.1-8.1c0-0.2,0-0.3,0-0.5c0.2,4.2,3.8,7.6,8,7.6
			c2.1,0,4-0.8,5.4-2.1c2.7,2.3,6.2,3.7,10,3.7c3.1,0,5.9-0.9,8.3-2.4c1.7,1.4,3.8,2.3,6.1,2.3c5.1,0,9.2-4,9.4-9c0,0.2,0,0.3,0,0.5
			c0,5.2-4.2,9.4-9.4,9.4c-2.3,0-4.5-0.9-6.1-2.3c-2.4,1.5-5.3,2.4-8.3,2.4C35.6,34,32.1,32.6,29.4,30.3z"/>
		<g>
			<polygon class="st1" points="48.4,22.6 47.1,21.9 45.8,21.1 45.8,19.6 45.8,18.2 48.4,19.7 			"/>
			<polygon class="st1" points="51.1,17.9 51.1,17.9 49.8,18.7 48.5,19.5 47.1,18.7 45.8,17.9 45.8,17.9 47.1,17.1 48.5,16.4 
				49.8,17.1 			"/>
			<polygon class="st1" points="48.5,22.7 48.5,19.6 49.9,18.9 51.2,18.1 51.2,19.6 51.2,21.1 49.9,21.9 			"/>
		</g>
	</g>
</g>
</svg>
